<svg width="24" height="24" viewBox="0 0 24 24" fill="none" xmlns="http://www.w3.org/2000/svg">
<path d="M12.2346 21.5656L0 10.7682L12.3282 0L12.2953 7.5738L10.4402 7.56204L10.454 4.37983L3.12964 10.7774L10.3984 17.1924L10.4124 13.9723L12.2675 13.9838L12.2346 21.5656Z" fill="white"/>
<path d="M24.0007 24.0005L21.7317 20.7399C21.697 20.6901 18.2117 15.724 15.3651 14.7081C13.3448 13.9871 12.0362 14.1831 11.4358 14.3641C11.2607 14.417 11.1693 14.4629 11.1678 14.4637C11.1758 14.4596 11.1798 14.4572 11.1798 14.4572L10.418 12.5501C10.4687 12.5221 10.6597 12.4232 10.99 12.3236C11.7721 12.0878 13.4479 11.8221 15.8862 12.6923C17.5063 13.2705 19.2048 14.7932 20.5492 16.2435C19.8789 14.1029 18.8595 11.6818 17.4573 10.5254C15.9992 9.32299 14.3172 8.84774 13.163 8.66081C11.8803 8.45313 10.9399 8.54404 10.9305 8.54497L10.7723 6.44652C10.9482 6.42802 15.1211 6.02504 18.4874 8.80113C19.9396 9.99868 21.1939 12.2428 22.2156 15.4711C22.9535 17.803 23.2912 19.7856 23.3052 19.8688L24.0007 24.0005Z" fill="white"/>
<path d="M10.4023 4.1287L12.2575 4.11719L12.2768 8.55062L10.4217 8.56213L10.4023 4.1287ZM10.4109 12.5498H12.2624V14.3537H10.4109V12.5498Z" fill="white"/>
</svg>
