<svg width="25" height="24" viewBox="0 0 25 24" fill="none" xmlns="http://www.w3.org/2000/svg">
<path d="M1.29297 7V6C1.29297 4.34315 2.63611 3 4.29297 3H20.293C21.9498 3 23.293 4.34315 23.293 6V18C23.293 19.6569 21.9498 21 20.293 21H15.293" stroke="white" stroke-width="2" stroke-linecap="round" stroke-linejoin="round"/>
<path d="M1.10479 11.6569C2.28668 11.6569 3.45701 11.8897 4.54894 12.342C5.64087 12.7943 6.63302 13.4572 7.46875 14.293C8.30448 15.1287 8.96741 16.1208 9.4197 17.2128C9.872 18.3047 10.1048 19.475 10.1048 20.6569" stroke="white" stroke-width="2" stroke-linecap="round"/>
<path d="M1.10459 16.1728C1.65873 16.1728 2.20744 16.2819 2.71939 16.494C3.23135 16.706 3.69652 17.0168 4.08836 17.4087C4.48019 17.8005 4.79101 18.2657 5.00307 18.7776C5.21513 19.2896 5.32427 19.8383 5.32427 20.3924" stroke="white" stroke-width="2" stroke-linecap="round"/>
</svg>
