<svg width="20" height="20" viewBox="0 0 20 20" fill="none" xmlns="http://www.w3.org/2000/svg">
    <path d="M19.127 3.67913L16.3185 0.871517L16.175 0.743018C14.9954 -0.295229 13.2119 -0.238979 12.1 0.871517L0.867345 12.1005L0.738845 12.2476C-0.295784 13.4279 -0.237159 15.2081 0.87297 16.3176L3.68148 19.1273L3.82498 19.2613C5.00561 20.2957 6.78636 20.2371 7.89624 19.1273L19.127 7.89262L19.2612 7.74925C20.2958 6.56912 20.2372 4.78875 19.127 3.67926V3.67913ZM18.0748 6.84437L6.83474 18.0735C6.25286 18.6547 5.31011 18.6547 4.72823 18.0735L1.91772 15.2657C1.33647 14.6841 1.33647 13.7415 1.91772 13.16L2.79685 12.2867L3.8491 13.3387C3.99226 13.4749 4.18363 13.5486 4.38114 13.5437C4.57865 13.5388 4.76613 13.4557 4.90236 13.3126C5.03401 13.1743 5.10752 12.9908 5.10771 12.7999C5.10789 12.6089 5.03474 12.4253 4.90336 12.2867L3.8491 11.2272L5.60549 9.47349L7.36362 11.2255L7.40087 11.2626C7.54077 11.4021 7.73035 11.4804 7.92794 11.4802C8.12553 11.4799 8.31493 11.4012 8.4545 11.2614C8.5266 11.1891 8.58308 11.1028 8.62042 11.0078C8.65777 10.9128 8.67517 10.8111 8.67156 10.7091C8.66795 10.607 8.6434 10.5068 8.59944 10.4147C8.55547 10.3226 8.49303 10.2405 8.41599 10.1735L6.65974 8.41774L8.41599 6.662L9.47012 7.71575L9.50737 7.75112C9.64727 7.89065 9.83686 7.9689 10.0344 7.96867C10.232 7.96843 10.4214 7.88973 10.561 7.74987C10.6331 7.6776 10.6896 7.59127 10.7269 7.49626C10.7642 7.40124 10.7816 7.29957 10.778 7.19754C10.7744 7.09552 10.7498 6.99534 10.7058 6.90321C10.6619 6.81108 10.5994 6.72897 10.5224 6.662L9.47012 5.61L11.2246 3.85426L12.9828 5.61L13.02 5.64725C13.1691 5.77687 13.3636 5.84197 13.5607 5.82823C13.7578 5.8145 13.9413 5.72305 14.071 5.574C14.1949 5.43162 14.2601 5.24751 14.2534 5.0589C14.2467 4.8703 14.1687 4.69127 14.035 4.55801L12.2863 2.80226L13.1653 1.92351C13.7471 1.34227 14.6899 1.34227 15.2718 1.92351L18.0748 4.73301C18.6562 5.31463 18.6562 6.25725 18.0748 6.83887V6.84437Z" fill="#FCFCFC"/>
</svg>
