<svg width="26" height="26" viewBox="0 0 26 26" fill="none" xmlns="http://www.w3.org/2000/svg">
<path d="M19.0832 1L19.0832 1.00003L24.9928 6.90143L19.0832 1ZM19.0832 1L19.0807 0.997592M19.0832 1L19.0807 0.997592M19.0807 0.997592C18.9478 0.869342 18.7697 0.798424 18.585 0.800027C18.4002 0.80163 18.2235 0.875627 18.0927 1.00617C17.962 1.13672 17.8878 1.31338 17.8862 1.49812C17.8846 1.68285 17.9557 1.86078 18.0841 1.99358L18.0841 1.9936M19.0807 0.997592L18.0841 1.9936M18.0841 1.9936L18.0866 1.99605M18.0841 1.9936L18.0866 1.99605M18.0866 1.99605L23.9956 7.89689M18.0866 1.99605L23.9956 7.89689M23.9956 7.89689C23.9957 7.897 23.9958 7.89712 23.9959 7.89724M23.9956 7.89689L23.9959 7.89724M23.9959 7.89724C24.0613 7.96305 24.139 8.0153 24.2245 8.05097C24.3103 8.08671 24.4023 8.1051 24.4952 8.1051C24.5881 8.1051 24.68 8.08671 24.7658 8.05097C24.8515 8.01525 24.9293 7.96291 24.9947 7.89697C24.9947 7.89694 24.9947 7.89691 24.9947 7.89689L24.8527 7.75612L23.9959 7.89724ZM17.8178 2.63172L17.8175 2.63138C17.7204 2.53494 17.5974 2.46876 17.4635 2.44081C17.3296 2.41286 17.1904 2.42434 17.0628 2.47387L17.0624 2.47404L7.78774 6.1005L7.78729 6.10068C7.64142 6.15812 7.51877 6.26239 7.43868 6.39714C7.35858 6.53189 7.32562 6.68944 7.345 6.84499L7.34517 6.8463C7.34517 6.84627 7.34518 6.84635 7.3452 6.84651C7.34577 6.8517 7.35639 6.94775 7.36158 7.12837C7.3669 7.31371 7.36646 7.58672 7.34379 7.93963C7.29844 8.6454 7.16418 9.67094 6.80917 10.9544C6.09937 13.5203 4.5058 17.122 0.968619 21.2628L0.96858 21.2628C0.853515 21.3976 0.793498 21.5708 0.800559 21.7479C0.80762 21.9249 0.881226 22.0927 1.00663 22.2179H1.00663L1.00666 22.218L2.33754 23.547V23.6651H2.45579L3.78639 24.9939C3.78649 24.994 3.78659 24.9941 3.78668 24.9941C3.85217 25.0599 3.93009 25.1119 4.01588 25.1472C4.10159 25.1825 4.19346 25.2005 4.28616 25.2C4.44873 25.1999 4.60987 25.1432 4.74161 25.0338L4.74162 25.0339L4.74354 25.0322C8.8895 21.4999 12.4973 19.9088 15.0675 19.2001C16.3531 18.8456 17.3804 18.7115 18.0871 18.6662C18.4404 18.6435 18.7137 18.6431 18.8991 18.6483C18.9918 18.6509 19.0626 18.655 19.1103 18.6584C19.1587 18.6619 19.1828 18.6647 19.1821 18.6646C19.3374 18.6837 19.4946 18.651 19.6292 18.5714C19.7639 18.4918 19.8685 18.3699 19.9265 18.2246L19.9269 18.2234L23.5574 8.95959L23.5575 8.95919C23.6072 8.8317 23.6187 8.69254 23.5907 8.55863C23.5627 8.42471 23.4963 8.30184 23.3998 8.20492L23.3994 8.20454L17.8178 2.63172ZM18.8007 17.2331C17.0538 17.2043 11.5059 17.619 4.32633 23.542L3.89113 23.108L13.4274 13.5839C13.6566 13.6848 13.9097 13.7458 14.1803 13.7458C15.2348 13.7458 16.0921 12.889 16.0921 11.8364C16.0921 10.7838 15.2338 9.92704 14.1803 9.92704C13.127 9.92704 12.2686 10.7827 12.2686 11.8364C12.2686 12.1066 12.3296 12.3593 12.4306 12.5881L2.89301 22.1125L2.45861 21.6787C8.39033 14.5098 8.81529 8.96779 8.77866 7.22546L17.1469 3.95306L22.0748 8.87508L18.8007 17.2331ZM13.7176 12.0277C13.693 11.9688 13.6801 11.9057 13.6795 11.8419C13.6876 11.7156 13.7432 11.597 13.8353 11.5098C13.9287 11.4214 14.0526 11.3721 14.1814 11.3721C14.3101 11.3721 14.434 11.4214 14.5274 11.5098C14.6193 11.5969 14.6749 11.7153 14.6832 11.8413C14.6816 11.9381 14.652 12.0324 14.5979 12.1128C14.5427 12.1949 14.4644 12.2589 14.3728 12.2968C14.2812 12.3346 14.1805 12.3447 14.0832 12.3255C13.986 12.3064 13.8967 12.2591 13.8264 12.1896C13.7797 12.1433 13.7428 12.0883 13.7176 12.0277Z" fill="white" stroke="white" stroke-width="0.4"/>
</svg>
