<svg class="icon" width="24px" height="24px" viewBox="0 0 1024 1024" version="1.1"
     xmlns="http://www.w3.org/2000/svg">
    <path fill="#ffffff"
          d="M213.577143 1024c-30.427429 0-59.099429-11.702857-80.749714-33.353143-44.470857-44.470857-44.470857-117.028571 0-161.499428 5.266286-5.266286 7.606857-11.702857 7.606857-18.724572s-2.925714-13.458286-7.606857-18.724571l-99.474286-99.474286c-44.470857-44.470857-44.470857-117.028571 0-161.499429l99.474286-99.474285c10.532571-10.532571 10.532571-26.916571 0-37.449143l-99.474286-99.474286c-44.470857-44.470857-44.470857-117.028571 0-161.499428 44.470857-44.470857 117.028571-44.470857 161.499428 0 10.532571 10.532571 26.916571 10.532571 37.449143 0l99.474286-99.474286c44.470857-44.470857 117.028571-44.470857 161.499429 0l99.474285 99.474286c10.532571 10.532571 26.916571 10.532571 37.449143 0l99.474286-99.474286c44.470857-44.470857 117.028571-44.470857 161.499428 0 44.470857 44.470857 44.470857 117.028571 0 161.499428-5.266286 5.266286-7.606857 11.702857-7.606857 18.724572s2.925714 13.458286 7.606857 18.724571l99.474286 99.474286c44.470857 44.470857 44.470857 117.028571 0 161.499429l-99.474286 99.474285c-10.532571 10.532571-10.532571 26.916571 0 37.449143l99.474286 99.474286c21.650286 21.650286 33.353143 50.322286 33.353143 80.749714s-11.702857 59.099429-33.353143 80.749714c-44.470857 44.470857-117.028571 44.470857-161.499428 0a27.209143 27.209143 0 0 0-37.449143 0l-99.474286 99.474286c-44.470857 44.470857-117.028571 44.470857-161.499429 0l-99.474285-99.474286a26.155886 26.155886 0 0 0-37.449143 0l-99.474286 99.474286c-21.650286 21.650286-50.322286 33.353143-80.749714 33.353143zM114.102857 187.245714c-7.021714 0-13.458286 2.340571-18.724571 7.606857s-7.606857 11.702857-7.606857 18.724572 2.925714 13.458286 7.606857 18.724571l99.474285 99.474286c44.470857 44.470857 44.470857 117.028571 0 161.499429l-99.474285 99.474285c-10.532571 10.532571-10.532571 26.916571 0 37.449143l99.474285 99.474286c21.650286 21.650286 33.353143 50.322286 33.353143 80.749714 0 30.427429-11.702857 59.099429-33.353143 80.749714-10.532571 10.532571-10.532571 26.916571 0 37.449143 5.266286 5.266286 11.702857 7.606857 18.724572 7.606857s13.458286-2.925714 18.724571-7.606857l99.474286-99.474285c44.470857-44.470857 117.028571-44.470857 161.499429 0l99.474285 99.474285c10.532571 10.532571 26.916571 10.532571 37.449143 0l99.474286-99.474285c43.300571-43.300571 118.198857-43.300571 161.499428 0 10.532571 10.532571 26.916571 10.532571 37.449143 0s10.532571-26.916571 0-37.449143l-99.474285-99.474286c-44.470857-44.470857-44.470857-117.028571 0-161.499429l99.474285-99.474285c10.532571-10.532571 10.532571-26.916571 0-37.449143l-99.474285-99.474286c-44.470857-44.470857-44.470857-117.028571 0-161.499428 10.532571-10.532571 10.532571-26.916571 0-37.449143s-26.916571-10.532571-37.449143 0l-99.474286 99.474285c-44.470857 44.470857-117.028571 44.470857-161.499429 0l-99.474285-99.474285a26.155886 26.155886 0 0 0-37.449143 0l-99.474286 99.474285c-44.470857 44.470857-117.028571 44.470857-161.499428 0a25.629257 25.629257 0 0 0-18.724572-7.606857z"
    />
</svg>