<svg width="20" height="19" viewBox="0 0 20 19" fill="none" xmlns="http://www.w3.org/2000/svg">
    <path d="M9.68627 0C13.5256 0 16.5098 3.89721 18.1001 9.1686L18.2648 9.73949C18.344 10.0267 18.4207 10.3174 18.492 10.6126L18.6293 11.2056C18.7834 11.9028 18.9147 12.616 19.0221 13.3415L19.1084 13.9663L19.1823 14.5955C19.2396 15.1222 19.2836 15.6533 19.3153 16.1862L19.347 16.8278C19.3646 17.2564 19.3725 17.6859 19.3725 18.1163C19.3725 18.3507 19.2798 18.5754 19.1146 18.7412C18.9495 18.9069 18.7255 19 18.492 19C18.2584 19 18.0345 18.9069 17.8693 18.7412C17.7042 18.5754 17.6114 18.3507 17.6114 18.1163C17.6114 9.8526 14.1349 1.76744 9.68627 1.76744C5.23763 1.76744 1.76114 9.8526 1.76114 18.1163C1.76114 18.3507 1.66837 18.5754 1.50323 18.7412C1.33809 18.9069 1.11411 19 0.88057 19C0.647029 19 0.423052 18.9069 0.257913 18.7412C0.0927743 18.5754 0 18.3507 0 18.1163C0 17.6859 0.00880553 17.2564 0.0255364 16.8278L0.0572371 16.1862C0.0889377 15.6533 0.132966 15.1222 0.189323 14.5955L0.264171 13.9663L0.350467 13.3415C0.457896 12.6169 0.588221 11.9028 0.743201 11.2056L0.88057 10.6135C0.951897 10.3183 1.02763 10.0276 1.10776 9.74037L1.27242 9.16949C2.86273 3.89721 5.84787 0 9.68627 0Z" fill="#FCFCFC" />
    <path d="M16.3922 15.647V16.7646H2.98041V15.647H16.3922Z" fill="#FCFCFC" />
    <path d="M4.45185 13.918C4.53023 13.8375 4.63526 13.7899 4.74623 13.7847C4.8572 13.7794 4.96608 13.8169 5.05139 13.8896C5.13671 13.9624 5.19228 14.0653 5.20715 14.1779C5.22203 14.2905 5.19513 14.4047 5.13175 14.498L5.08109 14.5617L3.48577 16.1917L5.08376 17.8536C5.15679 17.9295 5.20142 18.0293 5.20987 18.1354C5.21832 18.2416 5.19004 18.3475 5.12998 18.4345L5.07843 18.4963C5.00429 18.5711 4.90681 18.617 4.80301 18.6258C4.69921 18.6346 4.59569 18.6058 4.51051 18.5445L4.44919 18.4908L2.23529 16.1863L4.45274 13.918H4.45185ZM14.5481 13.918C14.4698 13.8375 14.3647 13.7899 14.2538 13.7847C14.1428 13.7794 14.0339 13.8169 13.9486 13.8896C13.8633 13.9624 13.8077 14.0653 13.7928 14.1779C13.778 14.2905 13.8049 14.4047 13.8682 14.498L13.9189 14.5617L15.5142 16.1917L13.9162 17.8536C13.8432 17.9295 13.7986 18.0293 13.7901 18.1354C13.7817 18.2416 13.81 18.3475 13.87 18.4345L13.9216 18.4963C13.9957 18.5711 14.0932 18.617 14.197 18.6258C14.3008 18.6346 14.4043 18.6058 14.4895 18.5445L14.5508 18.4908L16.7647 16.1863L14.5481 13.918Z" fill="#FCFCFC" />
</svg>
